<?xml version="1.0" encoding="UTF-8"?>
<svg width="1200px" height="400px" viewBox="0 0 1200 400" version="1.1" xmlns="http://www.w3.org/2000/svg" xmlns:xlink="http://www.w3.org/1999/xlink">
    <!-- Generator: Sketch 45.2 (43514) - http://www.bohemiancoding.com/sketch -->
    <title>Group</title>
    <desc>Created with Sketch.</desc>
    <defs></defs>
    <g id="Page-1" stroke="none" stroke-width="1" fill="none" fill-rule="evenodd">
        <g id="Group" stroke="#FFFFFF">
            <path d="M0.261937031,54.0355216 C33.0548895,29.5750899 60.5582777,29.5638489 94.8524812,29.5750899 C129.146685,29.5863309 135.70293,54.0355216 166.079806,54.0355216 C196.456683,54.0355216 206.906797,29.5750899 248.296758,29.5750899 C289.686718,29.5750899 270.874166,54.0355216 322.354566,54.0355216 C373.834967,54.0355216 362.411384,29.5750899 418.149239,29.5750899 C473.887093,29.5750899 445.906745,54.0355216 495.917171,54.0355216 C545.927596,54.0355216 541.423843,29.5750899 588.130734,29.5750899 C634.837625,29.5750899 628.672331,54.0355216 681.626616,54.0355216 C734.580901,54.0355216 731.218724,29.5750899 787.456995,29.5750899 C843.695267,29.5750899 839.942139,54.0355216 897.294621,54.0355216 C954.647102,54.0355216 937.625104,29.5750899 994.696101,29.5750899 C1051.7671,29.5750899 1039.49906,54.0355216 1094.98671,54.0355216 C1150.47435,54.0355216 1151.28753,29.5750899 1199.82016,29.5750899" id="Path-2"></path>
            <path d="M0.261937031,25.2585432 C33.0548895,0.798111511 60.5582777,0.786870504 94.8524812,0.798111511 C129.146685,0.809352518 135.70293,25.2585432 166.079806,25.2585432 C196.456683,25.2585432 206.906797,0.798111511 248.296758,0.798111511 C289.686718,0.798111511 270.874166,25.2585432 322.354566,25.2585432 C373.834967,25.2585432 362.411384,0.798111511 418.149239,0.798111511 C473.887093,0.798111511 445.906745,25.2585432 495.917171,25.2585432 C545.927596,25.2585432 541.423843,0.798111511 588.130734,0.798111511 C634.837625,0.798111511 628.672331,25.2585432 681.626616,25.2585432 C734.580901,25.2585432 731.218724,0.798111511 787.456995,0.798111511 C843.695267,0.798111511 839.942139,25.2585432 897.294621,25.2585432 C954.647102,25.2585432 937.625104,0.798111511 994.696101,0.798111511 C1051.7671,0.798111511 1039.49906,25.2585432 1094.98671,25.2585432 C1150.47435,25.2585432 1151.28753,0.798111511 1199.82016,0.798111511" id="Path-2"></path>
            <path d="M0.261937031,82.8125 C33.0548895,58.3520683 60.5582777,58.3408273 94.8524812,58.3520683 C129.146685,58.3633094 135.70293,82.8125 166.079806,82.8125 C196.456683,82.8125 206.906797,58.3520683 248.296758,58.3520683 C289.686718,58.3520683 270.874166,82.8125 322.354566,82.8125 C373.834967,82.8125 362.411384,58.3520683 418.149239,58.3520683 C473.887093,58.3520683 445.906745,82.8125 495.917171,82.8125 C545.927596,82.8125 541.423843,58.3520683 588.130734,58.3520683 C634.837625,58.3520683 628.672331,82.8125 681.626616,82.8125 C734.580901,82.8125 731.218724,58.3520683 787.456995,58.3520683 C843.695267,58.3520683 839.942139,82.8125 897.294621,82.8125 C954.647102,82.8125 937.625104,58.3520683 994.696101,58.3520683 C1051.7671,58.3520683 1039.49906,82.8125 1094.98671,82.8125 C1150.47435,82.8125 1151.28753,58.3520683 1199.82016,58.3520683" id="Path-2"></path>
            <path d="M0.261937031,111.589478 C33.0548895,87.1290468 60.5582777,87.1178058 94.8524812,87.1290468 C129.146685,87.1402878 135.70293,111.589478 166.079806,111.589478 C196.456683,111.589478 206.906797,87.1290468 248.296758,87.1290468 C289.686718,87.1290468 270.874166,111.589478 322.354566,111.589478 C373.834967,111.589478 362.411384,87.1290468 418.149239,87.1290468 C473.887093,87.1290468 445.906745,111.589478 495.917171,111.589478 C545.927596,111.589478 541.423843,87.1290468 588.130734,87.1290468 C634.837625,87.1290468 628.672331,111.589478 681.626616,111.589478 C734.580901,111.589478 731.218724,87.1290468 787.456995,87.1290468 C843.695267,87.1290468 839.942139,111.589478 897.294621,111.589478 C954.647102,111.589478 937.625104,87.1290468 994.696101,87.1290468 C1051.7671,87.1290468 1039.49906,111.589478 1094.98671,111.589478 C1150.47435,111.589478 1151.28753,87.1290468 1199.82016,87.1290468" id="Path-2"></path>
            <path d="M0.261937031,140.366457 C33.0548895,115.906025 60.5582777,115.894784 94.8524812,115.906025 C129.146685,115.917266 135.70293,140.366457 166.079806,140.366457 C196.456683,140.366457 206.906797,115.906025 248.296758,115.906025 C289.686718,115.906025 270.874166,140.366457 322.354566,140.366457 C373.834967,140.366457 362.411384,115.906025 418.149239,115.906025 C473.887093,115.906025 445.906745,140.366457 495.917171,140.366457 C545.927596,140.366457 541.423843,115.906025 588.130734,115.906025 C634.837625,115.906025 628.672331,140.366457 681.626616,140.366457 C734.580901,140.366457 731.218724,115.906025 787.456995,115.906025 C843.695267,115.906025 839.942139,140.366457 897.294621,140.366457 C954.647102,140.366457 937.625104,115.906025 994.696101,115.906025 C1051.7671,115.906025 1039.49906,140.366457 1094.98671,140.366457 C1150.47435,140.366457 1151.28753,115.906025 1199.82016,115.906025" id="Path-2"></path>
            <path d="M0.261937031,169.143435 C33.0548895,144.683004 60.5582777,144.671763 94.8524812,144.683004 C129.146685,144.694245 135.70293,169.143435 166.079806,169.143435 C196.456683,169.143435 206.906797,144.683004 248.296758,144.683004 C289.686718,144.683004 270.874166,169.143435 322.354566,169.143435 C373.834967,169.143435 362.411384,144.683004 418.149239,144.683004 C473.887093,144.683004 445.906745,169.143435 495.917171,169.143435 C545.927596,169.143435 541.423843,144.683004 588.130734,144.683004 C634.837625,144.683004 628.672331,169.143435 681.626616,169.143435 C734.580901,169.143435 731.218724,144.683004 787.456995,144.683004 C843.695267,144.683004 839.942139,169.143435 897.294621,169.143435 C954.647102,169.143435 937.625104,144.683004 994.696101,144.683004 C1051.7671,144.683004 1039.49906,169.143435 1094.98671,169.143435 C1150.47435,169.143435 1151.28753,144.683004 1199.82016,144.683004" id="Path-2"></path>
            <path d="M0.261937031,197.920414 C33.0548895,173.459982 60.5582777,173.448741 94.8524812,173.459982 C129.146685,173.471223 135.70293,197.920414 166.079806,197.920414 C196.456683,197.920414 206.906797,173.459982 248.296758,173.459982 C289.686718,173.459982 270.874166,197.920414 322.354566,197.920414 C373.834967,197.920414 362.411384,173.459982 418.149239,173.459982 C473.887093,173.459982 445.906745,197.920414 495.917171,197.920414 C545.927596,197.920414 541.423843,173.459982 588.130734,173.459982 C634.837625,173.459982 628.672331,197.920414 681.626616,197.920414 C734.580901,197.920414 731.218724,173.459982 787.456995,173.459982 C843.695267,173.459982 839.942139,197.920414 897.294621,197.920414 C954.647102,197.920414 937.625104,173.459982 994.696101,173.459982 C1051.7671,173.459982 1039.49906,197.920414 1094.98671,197.920414 C1150.47435,197.920414 1151.28753,173.459982 1199.82016,173.459982" id="Path-2"></path>
            <path d="M0.261937031,226.697392 C33.0548895,202.23696 60.5582777,202.225719 94.8524812,202.23696 C129.146685,202.248201 135.70293,226.697392 166.079806,226.697392 C196.456683,226.697392 206.906797,202.23696 248.296758,202.23696 C289.686718,202.23696 270.874166,226.697392 322.354566,226.697392 C373.834967,226.697392 362.411384,202.23696 418.149239,202.23696 C473.887093,202.23696 445.906745,226.697392 495.917171,226.697392 C545.927596,226.697392 541.423843,202.23696 588.130734,202.23696 C634.837625,202.23696 628.672331,226.697392 681.626616,226.697392 C734.580901,226.697392 731.218724,202.23696 787.456995,202.23696 C843.695267,202.23696 839.942139,226.697392 897.294621,226.697392 C954.647102,226.697392 937.625104,202.23696 994.696101,202.23696 C1051.7671,202.23696 1039.49906,226.697392 1094.98671,226.697392 C1150.47435,226.697392 1151.28753,202.23696 1199.82016,202.23696" id="Path-2"></path>
            <path d="M0.261937031,255.474371 C33.0548895,231.013939 60.5582777,231.002698 94.8524812,231.013939 C129.146685,231.02518 135.70293,255.474371 166.079806,255.474371 C196.456683,255.474371 206.906797,231.013939 248.296758,231.013939 C289.686718,231.013939 270.874166,255.474371 322.354566,255.474371 C373.834967,255.474371 362.411384,231.013939 418.149239,231.013939 C473.887093,231.013939 445.906745,255.474371 495.917171,255.474371 C545.927596,255.474371 541.423843,231.013939 588.130734,231.013939 C634.837625,231.013939 628.672331,255.474371 681.626616,255.474371 C734.580901,255.474371 731.218724,231.013939 787.456995,231.013939 C843.695267,231.013939 839.942139,255.474371 897.294621,255.474371 C954.647102,255.474371 937.625104,231.013939 994.696101,231.013939 C1051.7671,231.013939 1039.49906,255.474371 1094.98671,255.474371 C1150.47435,255.474371 1151.28753,231.013939 1199.82016,231.013939" id="Path-2"></path>
            <path d="M0.261937031,284.251349 C33.0548895,259.790917 60.5582777,259.779676 94.8524812,259.790917 C129.146685,259.802158 135.70293,284.251349 166.079806,284.251349 C196.456683,284.251349 206.906797,259.790917 248.296758,259.790917 C289.686718,259.790917 270.874166,284.251349 322.354566,284.251349 C373.834967,284.251349 362.411384,259.790917 418.149239,259.790917 C473.887093,259.790917 445.906745,284.251349 495.917171,284.251349 C545.927596,284.251349 541.423843,259.790917 588.130734,259.790917 C634.837625,259.790917 628.672331,284.251349 681.626616,284.251349 C734.580901,284.251349 731.218724,259.790917 787.456995,259.790917 C843.695267,259.790917 839.942139,284.251349 897.294621,284.251349 C954.647102,284.251349 937.625104,259.790917 994.696101,259.790917 C1051.7671,259.790917 1039.49906,284.251349 1094.98671,284.251349 C1150.47435,284.251349 1151.28753,259.790917 1199.82016,259.790917" id="Path-2"></path>
            <path d="M0.261937031,313.028327 C33.0548895,288.567896 60.5582777,288.556655 94.8524812,288.567896 C129.146685,288.579137 135.70293,313.028327 166.079806,313.028327 C196.456683,313.028327 206.906797,288.567896 248.296758,288.567896 C289.686718,288.567896 270.874166,313.028327 322.354566,313.028327 C373.834967,313.028327 362.411384,288.567896 418.149239,288.567896 C473.887093,288.567896 445.906745,313.028327 495.917171,313.028327 C545.927596,313.028327 541.423843,288.567896 588.130734,288.567896 C634.837625,288.567896 628.672331,313.028327 681.626616,313.028327 C734.580901,313.028327 731.218724,288.567896 787.456995,288.567896 C843.695267,288.567896 839.942139,313.028327 897.294621,313.028327 C954.647102,313.028327 937.625104,288.567896 994.696101,288.567896 C1051.7671,288.567896 1039.49906,313.028327 1094.98671,313.028327 C1150.47435,313.028327 1151.28753,288.567896 1199.82016,288.567896" id="Path-2"></path>
            <path d="M0.261937031,341.805306 C33.0548895,317.344874 60.5582777,317.333633 94.8524812,317.344874 C129.146685,317.356115 135.70293,341.805306 166.079806,341.805306 C196.456683,341.805306 206.906797,317.344874 248.296758,317.344874 C289.686718,317.344874 270.874166,341.805306 322.354566,341.805306 C373.834967,341.805306 362.411384,317.344874 418.149239,317.344874 C473.887093,317.344874 445.906745,341.805306 495.917171,341.805306 C545.927596,341.805306 541.423843,317.344874 588.130734,317.344874 C634.837625,317.344874 628.672331,341.805306 681.626616,341.805306 C734.580901,341.805306 731.218724,317.344874 787.456995,317.344874 C843.695267,317.344874 839.942139,341.805306 897.294621,341.805306 C954.647102,341.805306 937.625104,317.344874 994.696101,317.344874 C1051.7671,317.344874 1039.49906,341.805306 1094.98671,341.805306 C1150.47435,341.805306 1151.28753,317.344874 1199.82016,317.344874" id="Path-2"></path>
            <path d="M0.261937031,370.582284 C33.0548895,346.121853 60.5582777,346.110612 94.8524812,346.121853 C129.146685,346.133094 135.70293,370.582284 166.079806,370.582284 C196.456683,370.582284 206.906797,346.121853 248.296758,346.121853 C289.686718,346.121853 270.874166,370.582284 322.354566,370.582284 C373.834967,370.582284 362.411384,346.121853 418.149239,346.121853 C473.887093,346.121853 445.906745,370.582284 495.917171,370.582284 C545.927596,370.582284 541.423843,346.121853 588.130734,346.121853 C634.837625,346.121853 628.672331,370.582284 681.626616,370.582284 C734.580901,370.582284 731.218724,346.121853 787.456995,346.121853 C843.695267,346.121853 839.942139,370.582284 897.294621,370.582284 C954.647102,370.582284 937.625104,346.121853 994.696101,346.121853 C1051.7671,346.121853 1039.49906,370.582284 1094.98671,370.582284 C1150.47435,370.582284 1151.28753,346.121853 1199.82016,346.121853" id="Path-2"></path>
            <path d="M0.261937031,399.359263 C33.0548895,374.898831 60.5582777,374.88759 94.8524812,374.898831 C129.146685,374.910072 135.70293,399.359263 166.079806,399.359263 C196.456683,399.359263 206.906797,374.898831 248.296758,374.898831 C289.686718,374.898831 270.874166,399.359263 322.354566,399.359263 C373.834967,399.359263 362.411384,374.898831 418.149239,374.898831 C473.887093,374.898831 445.906745,399.359263 495.917171,399.359263 C545.927596,399.359263 541.423843,374.898831 588.130734,374.898831 C634.837625,374.898831 628.672331,399.359263 681.626616,399.359263 C734.580901,399.359263 731.218724,374.898831 787.456995,374.898831 C843.695267,374.898831 839.942139,399.359263 897.294621,399.359263 C954.647102,399.359263 937.625104,374.898831 994.696101,374.898831 C1051.7671,374.898831 1039.49906,399.359263 1094.98671,399.359263 C1150.47435,399.359263 1151.28753,374.898831 1199.82016,374.898831" id="Path-2"></path>
        </g>
    </g>
</svg>